# xmcd
#
# Track frame offsets:
#	150
#	19020
#	37317
#	54947
#	69297
#	86745
#	99354
#	115270
#	133025
#	157140
#	174215
#	193540
#	210730
#	225409
#
# Disc length: 3437 seconds
#
# Revision: 0
# Processed by: cddbd v1.5.1PL0 Copyright (c) Steve Scherf et al.
# Submitted via: MusicWizard 7.2.0
#
DISCID=b50d6b0e
DTITLE=Various Artist - FAB14: Texas Troubadours
DYEAR=2004
DGENRE=Country
TTITLE0=Slaid Cleaves - Bring It On
TTITLE1=Bruce Robison - Can't Get There From Here
TTITLE2=Joe Ely - A Flood On Our Hands
TTITLE3=Caroline Herring - MGM Grand
TTITLE4=Tish Hinojosa - Mona Lisa By The Rio Grande
TTITLE5=Kelly Willis - The Circle
TTITLE6=Rosie Flores - This Ol' Honky Tonk
TTITLE7=Dale Watson - England To Texas
TTITLE8=Jimmie Dale Gilmore - Goodbye Old Missoula
TTITLE9=Ray Wylie Hubbard - Without Love (We're Just Wastin' Time)
TTITLE10=Terri Hendrix - Hole In My Pocket
TTITLE11=Two Tons Of Steel - Does Heaven Know
TTITLE12=Angela Strehli - Can't Stop These Teardrops
TTITLE13=Joe Guitar Hughes - Put It In Writing
EXTD=
EXTT0=
EXTT1=
EXTT2=
EXTT3=
EXTT4=
EXTT5=
EXTT6=
EXTT7=
EXTT8=
EXTT9=
EXTT10=
EXTT11=
EXTT12=
EXTT13=
PLAYORDER=
